# Blender 4.1.1
# www.blender.org
mtllib chargeEnemy.mtl
o 立方体
v 0.356439 0.080667 -2.032082
v 0.356433 0.791441 -2.091250
v 0.348281 0.356465 1.065409
v 0.348271 1.016994 0.976980
v -0.356793 0.080667 -2.032000
v -0.356799 0.791441 -2.091168
v -0.365520 0.356465 1.065492
v -0.365530 1.016994 0.977062
v 0.000181 -0.030541 1.081105
v 0.000168 1.407867 0.961365
v -0.000175 -0.095085 -2.017411
v -0.000185 0.967193 -2.105840
v 0.532796 0.436054 -2.061687
v 0.721866 0.688663 1.021152
v -0.721517 0.688663 1.021318
v -0.533156 0.436054 -2.061564
v -0.000202 0.436054 -2.249884
v 0.000149 0.688663 0.803105
v -0.266319 1.219802 0.977051
v -0.192637 0.052080 -1.981301
v -0.266308 0.157524 1.065480
v -0.192644 0.819290 -2.045167
v -0.266675 0.436054 -2.123631
v -0.266325 0.688663 0.919430
v 0.266668 0.157524 1.065419
v 0.192288 0.819290 -2.045212
v 0.266657 1.219802 0.976990
v 0.192295 0.052080 -1.981345
v 0.266651 0.688663 0.919368
v 0.266301 0.436054 -2.123692
v 0.384755 0.623652 -2.028948
v 0.533148 0.948921 0.999508
v -0.532804 0.948921 0.999631
v -0.385108 0.623652 -2.028860
v -0.000190 0.696312 -2.145327
v 0.000160 0.948921 0.897734
v -0.187453 0.618151 -2.138799
v -0.266328 0.948921 0.897764
v 0.266648 0.948921 0.897703
v 0.187075 0.618151 -2.138842
v 0.533153 0.423094 1.043281
v -0.532799 0.423094 1.043404
v -0.385104 0.243883 -1.997246
v -0.000185 0.170485 -2.101554
v 0.000165 0.423094 0.941506
v 0.384759 0.243883 -1.997334
v -0.266323 0.423094 0.941537
v -0.187450 0.248646 -2.108039
v 0.187079 0.248646 -2.108082
v 0.266653 0.423094 0.941476
v -0.000020 -0.369191 -0.674209
v -0.000016 -0.573152 -0.633638
v -0.000020 -0.777114 -0.674209
v -0.000054 -1.065558 -0.962653
v -0.078108 -0.080747 -0.978170
v -0.144259 -0.196281 -0.818415
v -0.188460 -0.369191 -0.711669
v -0.203982 -0.573152 -0.674185
v -0.188460 -0.777114 -0.711669
v -0.144259 -0.950023 -0.818415
v -0.078108 -1.065558 -0.978170
v -0.144283 -0.080747 -1.022376
v -0.266534 -0.196281 -0.900096
v -0.348220 -0.369191 -0.818391
v -0.376905 -0.573152 -0.789700
v -0.348220 -0.777113 -0.818391
v -0.266534 -0.950023 -0.900096
v -0.144283 -1.065558 -1.022376
v -0.188504 -0.080747 -1.088540
v -0.348244 -0.196281 -1.022352
v -0.454979 -0.369191 -0.978127
v -0.492459 -0.573152 -0.962597
v -0.454979 -0.777113 -0.978127
v -0.348244 -0.950023 -1.022352
v -0.188504 -1.065558 -1.088540
v -0.204038 -0.080747 -1.166591
v -0.376948 -0.196281 -1.166571
v -0.492483 -0.369191 -1.166558
v -0.533053 -0.573152 -1.166553
v -0.492483 -0.777113 -1.166558
v -0.376948 -0.950023 -1.166571
v -0.204038 -1.065558 -1.166591
v -0.188522 -0.080747 -1.244645
v -0.348277 -0.196281 -1.310797
v -0.455022 -0.369191 -1.354998
v -0.492506 -0.573152 -1.370519
v -0.455022 -0.777113 -1.354998
v -0.348277 -0.950023 -1.310796
v -0.188522 -1.065558 -1.244645
v -0.144316 -0.080747 -1.310820
v -0.266596 -0.196281 -1.433072
v -0.348300 -0.369191 -1.514758
v -0.376991 -0.573152 -1.543442
v -0.348300 -0.777113 -1.514758
v -0.266596 -0.950023 -1.433072
v -0.144316 -1.065558 -1.310820
v -0.078151 -0.080747 -1.355041
v -0.144339 -0.196281 -1.514781
v -0.188565 -0.369191 -1.621516
v -0.204095 -0.573152 -1.658996
v -0.188565 -0.777113 -1.621516
v -0.144339 -0.950023 -1.514781
v -0.078151 -1.065558 -1.355041
v -0.000101 -0.080747 -1.370575
v -0.000120 -0.196281 -1.543485
v -0.000134 -0.369191 -1.659020
v -0.000138 -0.573152 -1.699590
v -0.000134 -0.777113 -1.659020
v -0.000120 -0.950023 -1.543485
v -0.000101 -1.065558 -1.370575
v -0.000077 -1.106128 -1.166614
v -0.000077 -0.040176 -1.166614
v 0.077954 -0.080747 -1.355059
v 0.144105 -0.196281 -1.514814
v 0.188306 -0.369191 -1.621559
v 0.203827 -0.573152 -1.659043
v 0.188306 -0.777114 -1.621559
v 0.144105 -0.950023 -1.514814
v 0.077954 -1.065558 -1.355059
v 0.144129 -0.080747 -1.310853
v 0.266380 -0.196281 -1.433133
v 0.348066 -0.369191 -1.514838
v 0.376751 -0.573152 -1.543528
v 0.348066 -0.777113 -1.514838
v 0.266380 -0.950023 -1.433133
v 0.144129 -1.065558 -1.310853
v 0.188349 -0.080747 -1.244689
v 0.348090 -0.196281 -1.310876
v 0.454825 -0.369191 -1.355102
v 0.492305 -0.573152 -1.370632
v 0.454825 -0.777113 -1.355102
v 0.348090 -0.950023 -1.310876
v 0.188349 -1.065558 -1.244689
v 0.203884 -0.080747 -1.166638
v 0.376794 -0.196281 -1.166657
v 0.492328 -0.369191 -1.166671
v 0.532899 -0.573152 -1.166675
v 0.492328 -0.777113 -1.166671
v 0.376794 -0.950023 -1.166657
v 0.203884 -1.065558 -1.166638
v 0.188367 -0.080747 -1.088583
v 0.348123 -0.196281 -1.022432
v 0.454868 -0.369191 -0.978231
v 0.492352 -0.573152 -0.962710
v 0.454868 -0.777113 -0.978231
v 0.348123 -0.950023 -1.022432
v 0.188367 -1.065558 -1.088583
v 0.144162 -0.080747 -1.022408
v 0.266441 -0.196281 -0.900157
v 0.348146 -0.369191 -0.818471
v 0.376837 -0.573152 -0.789787
v 0.348146 -0.777113 -0.818471
v 0.266441 -0.950023 -0.900157
v 0.144162 -1.065558 -1.022408
v 0.077997 -0.080747 -0.978188
v 0.144185 -0.196281 -0.818448
v 0.188410 -0.369191 -0.711713
v 0.203940 -0.573152 -0.674232
v 0.188410 -0.777114 -0.711713
v 0.144185 -0.950023 -0.818448
v 0.077997 -1.065558 -0.978188
v -0.000054 -0.080747 -0.962653
v -0.000034 -0.196281 -0.789744
v -0.000034 -0.950023 -0.789744
vn 0.3557 0.9273 -0.1170
vn 0.3105 -0.4937 0.8123
vn -0.3879 0.9143 -0.1171
vn 0.4774 -0.2339 -0.8470
vn -0.8949 -0.4463 -0.0062
vn 0.9253 0.3724 -0.0721
vn -0.6281 0.7692 -0.1173
vn 0.6058 -0.7955 0.0127
vn -0.2018 0.4091 -0.8899
vn 0.0001 -0.2809 0.9597
vn 0.0001 0.0830 0.9966
vn -0.1708 -0.4805 -0.8602
vn 0.4661 -0.2673 -0.8434
vn -0.7918 -0.6108 -0.0025
vn 0.3560 0.0775 0.9313
vn 0.7918 -0.6108 -0.0026
vn -0.4663 -0.2673 -0.8433
vn -0.4776 -0.2339 -0.8469
vn -0.1469 0.9865 -0.0729
vn -0.5772 -0.8164 0.0171
vn 0.1706 -0.4805 -0.8603
vn -0.3558 0.0775 0.9313
vn -0.2978 -0.5509 0.7796
vn 0.1971 -0.9765 0.0875
vn 0.5772 0.8083 -0.1162
vn 0.2016 0.4091 -0.8900
vn 0.4253 0.1103 -0.8983
vn -0.2176 -0.0768 0.9730
vn 0.3989 0.0761 0.9138
vn -0.2142 0.3293 -0.9196
vn -0.3987 0.0761 0.9139
vn -0.4256 0.1103 -0.8982
vn 0.2140 0.3293 -0.9196
vn -0.8096 0.5790 -0.0969
vn 0.2178 -0.0768 0.9730
vn 0.8096 0.5790 -0.0971
vn -0.7177 0.2945 0.6310
vn 0.3790 -0.2795 -0.8822
vn 0.1619 -0.5378 -0.8274
vn 0.1498 0.2908 0.9450
vn 0.9845 -0.1747 0.0181
vn 0.6469 0.3225 0.6910
vn -0.9847 -0.1735 0.0127
vn -0.1621 -0.5378 -0.8274
vn -0.3792 -0.2795 -0.8821
vn -0.1496 0.2908 0.9450
vn -0.1098 -0.8264 0.5522
vn -0.1914 -0.1915 0.9627
vn -0.1631 0.5481 0.8203
vn -0.0388 0.9800 0.1949
vn -0.0388 -0.9800 0.1949
vn -0.1631 -0.5481 0.8203
vn -0.1914 0.1915 0.9627
vn -0.1098 0.8264 0.5522
vn -0.1104 0.9800 0.1653
vn -0.1104 -0.9800 0.1653
vn -0.4646 -0.5481 0.6955
vn -0.5452 0.1915 0.8161
vn -0.3127 0.8264 0.4682
vn -0.3128 -0.8264 0.4682
vn -0.5452 -0.1915 0.8161
vn -0.4646 0.5481 0.6955
vn -0.6954 -0.5481 0.4648
vn -0.8160 0.1915 0.5454
vn -0.4681 0.8264 0.3129
vn -0.4681 -0.8264 0.3129
vn -0.8160 -0.1915 0.5454
vn -0.6954 0.5481 0.4648
vn -0.1653 0.9800 0.1104
vn -0.1653 -0.9800 0.1104
vn -0.5522 -0.8264 0.1099
vn -0.9626 -0.1915 0.1916
vn -0.8203 0.5481 0.1633
vn -0.1949 0.9800 0.0388
vn -0.1949 -0.9800 0.0388
vn -0.8203 -0.5481 0.1633
vn -0.9626 0.1915 0.1916
vn -0.5522 0.8264 0.1099
vn -0.9627 -0.1915 -0.1914
vn -0.8203 0.5481 -0.1631
vn -0.1949 0.9800 -0.0388
vn -0.1949 -0.9800 -0.0388
vn -0.8203 -0.5481 -0.1631
vn -0.9627 0.1915 -0.1914
vn -0.5522 0.8264 -0.1098
vn -0.5522 -0.8264 -0.1098
vn -0.1653 -0.9800 -0.1104
vn -0.6955 -0.5481 -0.4646
vn -0.8161 0.1915 -0.5452
vn -0.4682 0.8264 -0.3127
vn -0.4682 -0.8264 -0.3127
vn -0.8161 -0.1915 -0.5452
vn -0.6955 0.5481 -0.4646
vn -0.1653 0.9800 -0.1104
vn -0.5454 0.1915 -0.8160
vn -0.3129 0.8264 -0.4681
vn -0.3129 -0.8264 -0.4681
vn -0.5454 -0.1915 -0.8160
vn -0.4648 0.5481 -0.6954
vn -0.1104 0.9800 -0.1653
vn -0.1104 -0.9800 -0.1653
vn -0.4648 -0.5481 -0.6954
vn -0.1099 -0.8264 -0.5522
vn -0.1916 -0.1915 -0.9626
vn -0.1633 0.5481 -0.8203
vn -0.0388 0.9800 -0.1949
vn -0.0388 -0.9800 -0.1949
vn -0.1633 -0.5481 -0.8203
vn -0.1916 0.1915 -0.9626
vn -0.1099 0.8264 -0.5522
vn 0.1631 0.5481 -0.8203
vn 0.0388 0.9800 -0.1949
vn 0.0388 -0.9800 -0.1949
vn 0.1631 -0.5481 -0.8203
vn 0.1914 0.1915 -0.9627
vn 0.1098 0.8264 -0.5522
vn 0.1098 -0.8264 -0.5522
vn 0.1914 -0.1915 -0.9627
vn 0.1104 -0.9800 -0.1653
vn 0.4646 -0.5481 -0.6955
vn 0.5452 0.1915 -0.8161
vn 0.3127 0.8264 -0.4682
vn 0.3127 -0.8264 -0.4682
vn 0.5452 -0.1915 -0.8161
vn 0.4646 0.5481 -0.6955
vn 0.1104 0.9800 -0.1653
vn 0.4681 0.8264 -0.3129
vn 0.4681 -0.8264 -0.3129
vn 0.8160 -0.1915 -0.5454
vn 0.6954 0.5481 -0.4648
vn 0.1653 0.9800 -0.1104
vn 0.1653 -0.9800 -0.1104
vn 0.6954 -0.5481 -0.4648
vn 0.8160 0.1915 -0.5454
vn 0.5522 -0.8264 -0.1099
vn 0.9626 -0.1915 -0.1916
vn 0.8203 0.5481 -0.1633
vn 0.1949 0.9800 -0.0388
vn 0.1949 -0.9800 -0.0388
vn 0.8203 -0.5481 -0.1633
vn 0.9626 0.1915 -0.1916
vn 0.5522 0.8264 -0.1099
vn 0.1949 0.9800 0.0388
vn 0.1949 -0.9800 0.0388
vn 0.8203 -0.5481 0.1631
vn 0.9627 0.1915 0.1914
vn 0.5522 0.8264 0.1098
vn 0.5522 -0.8264 0.1098
vn 0.9627 -0.1915 0.1914
vn 0.8203 0.5481 0.1631
vn 0.6955 -0.5481 0.4646
vn 0.8161 0.1915 0.5452
vn 0.4682 0.8264 0.3127
vn 0.4682 -0.8264 0.3127
vn 0.8161 -0.1915 0.5452
vn 0.6955 0.5481 0.4646
vn 0.1653 0.9800 0.1104
vn 0.1653 -0.9800 0.1104
vn 0.3129 -0.8264 0.4681
vn 0.5454 -0.1915 0.8160
vn 0.4648 0.5481 0.6954
vn 0.1104 0.9800 0.1653
vn 0.1104 -0.9800 0.1653
vn 0.4648 -0.5481 0.6954
vn 0.5454 0.1915 0.8160
vn 0.3129 0.8264 0.4681
vn 0.1916 -0.1915 0.9626
vn 0.1633 0.5481 0.8203
vn 0.0388 0.9800 0.1949
vn 0.0388 -0.9800 0.1949
vn 0.1633 -0.5481 0.8203
vn 0.1916 0.1915 0.9626
vn 0.1099 0.8264 0.5522
vn 0.1099 -0.8264 0.5522
vn 0.9866 0.1631 -0.0094
vn 0.4981 -0.2436 0.8322
vn -0.9868 0.1611 -0.0146
vn -0.1786 0.4190 -0.8902
vn -0.1968 -0.9766 0.0864
vn 0.1471 0.9865 -0.0721
vn -0.5773 0.8083 -0.1161
vn 0.5772 -0.8164 0.0169
vn -0.3894 0.1329 -0.9114
vn -0.1532 -0.1357 0.9788
vn -0.3608 0.4310 0.8271
vn -0.4148 -0.2482 -0.8754
vn 0.2026 -0.4477 -0.8709
vn -0.8151 -0.5794 -0.0023
vn 0.2126 0.2300 0.9497
vn 0.8151 -0.5794 -0.0025
vn 0.3610 0.4310 0.8270
vn -0.2028 -0.4477 -0.8709
vn 0.1784 0.4190 -0.8903
vn -0.8954 0.4380 -0.0799
vn -0.6058 -0.7955 0.0129
vn 0.1534 -0.1357 0.9788
vn 0.4146 -0.2482 -0.8755
vn -0.2124 0.2300 0.9497
vn -0.5723 -0.2303 0.7870
vn 0.9251 -0.3795 -0.0094
vn 0.6281 0.7692 -0.1174
vn 0.3892 0.1329 -0.9115
vn 0.1845 0.3664 -0.9120
vn 0.0001 -0.3417 0.9398
vn -0.4787 0.1360 -0.8674
vn -0.1847 0.3664 -0.9119
vn 0.4785 0.1360 -0.8675
vn -0.7717 0.6273 -0.1050
vn 0.7716 0.6273 -0.1052
vn -0.2175 0.7927 0.5695
vn 0.1916 -0.5282 -0.8272
vn -0.4883 0.0999 -0.8669
vn 0.0001 0.4229 0.9062
vn 0.3429 -0.9386 0.0386
vn 0.2279 0.7698 0.5962
vn -0.3739 -0.9267 0.0365
vn 0.4881 0.0999 -0.8670
vn -0.1918 -0.5282 -0.8271
vn -0.3127 -0.8264 0.4682
vt 0.820684 0.000107
vt 0.857097 0.142903
vt 0.820684 0.142903
vt 0.820684 0.250000
vt 0.857097 0.285699
vt 0.820684 0.285699
vt 0.820684 0.428495
vt 0.820684 0.535592
vt 0.857097 0.571292
vt 0.820684 0.571292
vt 0.714301 0.285699
vt 0.678602 0.428495
vt 0.678602 0.285699
vt 0.999893 0.285699
vt 0.964194 0.428495
vt 0.964194 0.285699
vt 0.892796 0.285699
vt 0.928495 0.428495
vt 0.892796 0.428495
vt 0.607204 0.285699
vt 0.642903 0.428495
vt 0.607204 0.428495
vt 0.857097 0.464194
vt 0.820684 0.499893
vt 0.820684 0.464194
vt 0.857097 0.178602
vt 0.820684 0.214301
vt 0.820684 0.178602
vt 0.785699 0.178602
vt 0.750000 0.214301
vt 0.750000 0.178602
vt 0.750000 0.464194
vt 0.785699 0.499893
vt 0.750000 0.499893
vt 0.785699 0.535592
vt 0.750000 0.571292
vt 0.750000 0.535592
vt 0.750000 0.285699
vt 0.785699 0.428495
vt 0.750000 0.428495
vt 0.785699 0.250000
vt 0.750000 0.250000
vt 0.785699 0.000107
vt 0.750000 0.142903
vt 0.750000 0.000107
vt 0.785699 0.464194
vt 0.857097 0.428495
vt 0.642903 0.285699
vt 0.857097 0.250000
vt 0.571505 0.285699
vt 0.571505 0.428495
vt 0.928495 0.285699
vt 0.857097 0.535592
vt 0.785699 0.142903
vt 0.785699 0.214301
vt 0.785699 0.571292
vt 0.785699 0.285699
vt 0.714301 0.142903
vt 0.714301 0.178602
vt 0.714301 0.535592
vt 0.714301 0.499893
vt 0.714301 0.428495
vt 0.714301 0.464194
vt 0.714301 0.250000
vt 0.714301 0.214301
vt 0.714301 0.000107
vt 0.714301 0.571292
vt 0.142903 0.142903
vt 0.071505 0.178602
vt 0.071505 0.142903
vt 0.285699 0.142903
vt 0.214301 0.178602
vt 0.214301 0.142903
vt 0.357097 0.142903
vt 0.428495 0.178602
vt 0.357097 0.178602
vt 0.499893 0.142903
vt 0.571292 0.160752
vt 0.499893 0.178602
vt 0.000107 0.160752
vt 0.142903 0.178602
vt 0.285699 0.178602
vt 0.428495 0.142903
vt 0.571292 0.196451
vt 0.499893 0.214301
vt 0.000107 0.196451
vt 0.071505 0.214301
vt 0.142903 0.214301
vt 0.357097 0.214301
vt 0.285699 0.214301
vt 0.428495 0.214301
vt 0.214301 0.214301
vt 0.142903 0.250000
vt 0.357097 0.250000
vt 0.285699 0.250000
vt 0.499893 0.250000
vt 0.428495 0.250000
vt 0.071505 0.250000
vt 0.214301 0.250000
vt 0.571292 0.232150
vt 0.000107 0.232151
vt 0.071505 0.285699
vt 0.214301 0.285699
vt 0.428495 0.285699
vt 0.357097 0.285699
vt 0.571292 0.267850
vt 0.499893 0.285699
vt 0.000107 0.267850
vt 0.142903 0.285699
vt 0.285699 0.285699
vt 0.214301 0.321398
vt 0.357097 0.321398
vt 0.571292 0.303549
vt 0.499893 0.321398
vt 0.000107 0.303549
vt 0.071505 0.321398
vt 0.142903 0.321398
vt 0.285699 0.321398
vt 0.428495 0.321398
vt 0.000107 0.339248
vt 0.071505 0.357097
vt 0.214301 0.357097
vt 0.142903 0.357097
vt 0.285699 0.357097
vt 0.428495 0.357097
vt 0.357097 0.357097
vt 0.571292 0.339248
vt 0.499893 0.357097
vt 0.285699 0.392796
vt 0.428495 0.392796
vt 0.142903 0.392796
vt 0.071505 0.392796
vt 0.214301 0.392796
vt 0.357097 0.392796
vt 0.571292 0.374947
vt 0.499893 0.392796
vt 0.000107 0.374947
vt 0.142903 0.428495
vt 0.071505 0.428495
vt 0.285699 0.428495
vt 0.214301 0.428495
vt 0.357097 0.428495
vt 0.571292 0.410646
vt 0.499893 0.428495
vt 0.000107 0.410646
vt 0.428495 0.428495
vt 0.428495 0.464194
vt 0.357097 0.464194
vt 0.571292 0.446345
vt 0.499893 0.464194
vt 0.000107 0.446345
vt 0.071505 0.464194
vt 0.142903 0.464194
vt 0.285699 0.464194
vt 0.214301 0.464194
vt 0.000107 0.482044
vt 0.071505 0.499893
vt 0.142903 0.499893
vt 0.357097 0.499893
vt 0.285699 0.499893
vt 0.499893 0.499893
vt 0.428495 0.499893
vt 0.214301 0.499893
vt 0.571292 0.482044
vt 0.499893 0.535592
vt 0.428495 0.535592
vt 0.071505 0.535593
vt 0.214301 0.535593
vt 0.357097 0.535592
vt 0.571292 0.517743
vt 0.000107 0.517743
vt 0.142903 0.535593
vt 0.285699 0.535593
vt 0.071505 0.571292
vt 0.285699 0.571292
vt 0.214301 0.571292
vt 0.428495 0.571292
vt 0.357097 0.571292
vt 0.571292 0.553442
vt 0.499893 0.571292
vt 0.000107 0.553442
vt 0.142903 0.571292
vt 0.499893 0.000107
vt 0.571292 0.017956
vt 0.499893 0.035806
vt 0.000107 0.017956
vt 0.071505 0.000107
vt 0.071505 0.035806
vt 0.142903 0.000107
vt 0.214301 0.035806
vt 0.142903 0.035806
vt 0.285699 0.000107
vt 0.357097 0.035806
vt 0.285699 0.035806
vt 0.428495 0.035806
vt 0.428495 0.000107
vt 0.214301 0.000107
vt 0.357097 0.000107
vt 0.214301 0.071505
vt 0.142903 0.071505
vt 0.285699 0.071505
vt 0.428495 0.071505
vt 0.071505 0.071505
vt 0.357097 0.071505
vt 0.571292 0.053655
vt 0.499893 0.071505
vt 0.000107 0.053655
vt 0.142903 0.107204
vt 0.071505 0.107204
vt 0.285699 0.107204
vt 0.214301 0.107204
vt 0.357097 0.107204
vt 0.571292 0.089354
vt 0.499893 0.107204
vt 0.000107 0.089354
vt 0.428495 0.107204
vt 0.571292 0.125053
vt 0.000107 0.125053
vt 0.857097 0.000107
vt 0.999893 0.428495
vt 0.857097 0.499893
vt 0.857097 0.214301
s 0
usemtl マテリアル
f 31/1/1 4/2/1 32/3/1
f 38/4/2 8/5/2 33/6/2
f 8/5/3 34/7/3 33/6/3
f 40/8/4 2/9/4 31/10/4
f 7/11/5 20/12/5 21/13/5
f 4/14/6 26/15/6 27/16/6
f 19/17/7 12/18/7 22/19/7
f 25/20/8 11/21/8 28/22/8
f 22/23/9 35/24/9 37/25/9
f 27/26/10 36/27/10 39/28/10
f 29/29/11 45/30/11 50/31/11
f 48/32/12 17/33/12 44/34/12
f 30/35/13 46/36/13 49/37/13
f 42/38/14 16/39/14 43/40/14
f 24/41/15 42/38/15 47/42/15
f 13/43/16 41/44/16 46/45/16
f 45/30/11 24/41/11 47/42/11
f 43/40/17 23/46/17 48/32/17
f 6/47/18 37/25/18 34/7/18
f 8/5/19 22/19/19 6/47/19
f 21/13/20 11/21/20 9/48/20
f 36/27/10 19/49/10 38/4/10
f 17/33/21 49/37/21 44/34/21
f 41/44/22 29/29/22 50/31/22
f 4/2/23 39/28/23 32/3/23
f 3/50/24 28/22/24 1/51/24
f 27/16/25 12/18/25 10/52/25
f 35/24/26 26/53/26 40/8/26
f 17/33/27 40/8/27 30/35/27
f 32/3/28 29/29/28 14/54/28
f 18/55/29 38/4/29 24/41/29
f 34/7/30 23/46/30 16/39/30
f 39/28/31 18/55/31 29/29/31
f 37/25/32 17/33/32 23/46/32
f 30/35/33 31/10/33 13/56/33
f 33/6/34 16/39/34 15/57/34
f 24/41/35 33/6/35 15/57/35
f 13/43/36 32/3/36 14/54/36
f 3/58/37 50/31/37 25/59/37
f 44/34/38 28/60/38 11/61/38
f 5/62/39 48/32/39 20/63/39
f 45/30/40 21/64/40 9/65/40
f 46/45/41 3/58/41 1/66/41
f 47/42/42 7/11/42 21/64/42
f 7/11/43 43/40/43 5/62/43
f 49/37/44 1/67/44 28/60/44
f 20/63/45 44/34/45 11/61/45
f 25/59/46 45/30/46 9/65/46
f 164/68/47 61/69/47 54/70/47
f 52/71/48 59/72/48 53/73/48
f 51/74/49 56/75/49 57/76/49
f 162/77/50 112/78/50 55/79/50
f 111/80/51 54/70/51 61/69/51
f 53/73/52 60/81/52 164/68/52
f 52/71/53 57/76/53 58/82/53
f 163/83/54 55/79/54 56/75/54
f 55/79/55 112/84/55 62/85/55
f 111/86/56 61/69/56 68/87/56
f 59/72/57 67/88/57 60/81/57
f 58/82/58 64/89/58 65/90/58
f 56/75/59 62/85/59 63/91/59
f 60/81/60 68/87/60 61/69/60
f 58/82/61 66/92/61 59/72/61
f 57/76/62 63/91/62 64/89/62
f 66/92/63 74/93/63 67/88/63
f 65/90/64 71/94/64 72/95/64
f 63/91/65 69/96/65 70/97/65
f 67/88/66 75/98/66 68/87/66
f 65/90/67 73/99/67 66/92/67
f 64/89/68 70/97/68 71/94/68
f 62/85/69 112/100/69 69/96/69
f 111/101/70 68/87/70 75/98/70
f 74/93/71 82/102/71 75/98/71
f 72/95/72 80/103/72 73/99/72
f 71/94/73 77/104/73 78/105/73
f 69/96/74 112/106/74 76/107/74
f 111/108/75 75/98/75 82/102/75
f 73/99/76 81/109/76 74/93/76
f 71/94/77 79/110/77 72/95/77
f 70/97/78 76/107/78 77/104/78
f 79/110/79 87/111/79 80/103/79
f 77/104/80 85/112/80 78/105/80
f 76/107/81 112/113/81 83/114/81
f 111/115/82 82/102/82 89/116/82
f 81/109/83 87/111/83 88/117/83
f 78/105/84 86/118/84 79/110/84
f 76/107/85 84/119/85 77/104/85
f 82/102/86 88/117/86 89/116/86
f 111/120/87 89/116/87 96/121/87
f 88/117/88 94/122/88 95/123/88
f 85/112/89 93/124/89 86/118/89
f 83/114/90 91/125/90 84/119/90
f 89/116/91 95/123/91 96/121/91
f 87/111/92 93/124/92 94/122/92
f 84/119/93 92/126/93 85/112/93
f 83/114/94 112/127/94 90/128/94
f 92/126/95 100/129/95 93/124/95
f 90/128/96 98/130/96 91/125/96
f 96/121/97 102/131/97 103/132/97
f 94/122/98 100/129/98 101/133/98
f 91/125/99 99/134/99 92/126/99
f 90/128/100 112/135/100 97/136/100
f 111/137/101 96/121/101 103/132/101
f 95/123/102 101/133/102 102/131/102
f 103/132/103 109/138/103 110/139/103
f 101/133/104 107/140/104 108/141/104
f 98/130/105 106/142/105 99/134/105
f 97/136/106 112/143/106 104/144/106
f 111/145/107 103/132/107 110/139/107
f 102/131/108 108/141/108 109/138/108
f 99/134/109 107/140/109 100/129/109
f 97/136/110 105/146/110 98/130/110
f 106/142/111 114/147/111 115/148/111
f 104/144/112 112/149/112 113/150/112
f 111/151/113 110/139/113 119/152/113
f 108/141/114 118/153/114 109/138/114
f 107/140/115 115/148/115 116/154/115
f 105/146/116 113/150/116 114/147/116
f 109/138/117 119/152/117 110/139/117
f 107/140/118 117/155/118 108/141/118
f 111/156/119 119/152/119 126/157/119
f 117/155/120 125/158/120 118/153/120
f 116/154/121 122/159/121 123/160/121
f 114/147/122 120/161/122 121/162/122
f 118/153/123 126/157/123 119/152/123
f 116/154/124 124/163/124 117/155/124
f 115/148/125 121/162/125 122/159/125
f 113/150/126 112/164/126 120/161/126
f 121/162/127 127/165/127 128/166/127
f 125/158/128 133/167/128 126/157/128
f 123/160/129 131/168/129 124/163/129
f 122/159/130 128/166/130 129/169/130
f 120/161/131 112/170/131 127/165/131
f 111/171/132 126/157/132 133/167/132
f 124/163/133 132/172/133 125/158/133
f 123/160/134 129/169/134 130/173/134
f 132/172/135 140/174/135 133/167/135
f 131/168/136 137/175/136 138/176/136
f 129/169/137 135/177/137 136/178/137
f 127/165/138 112/179/138 134/180/138
f 111/181/139 133/167/139 140/174/139
f 131/168/140 139/182/140 132/172/140
f 130/173/141 136/178/141 137/175/141
f 128/166/142 134/180/142 135/177/142
f 134/183/143 112/184/143 141/185/143
f 111/186/144 140/187/144 147/188/144
f 139/189/145 145/190/145 146/191/145
f 137/192/146 143/193/146 144/194/146
f 134/183/147 142/195/147 135/196/147
f 140/187/148 146/191/148 147/188/148
f 138/197/149 144/194/149 145/190/149
f 135/196/150 143/193/150 136/198/150
f 146/191/151 152/199/151 153/200/151
f 143/193/152 151/201/152 144/194/152
f 141/185/153 149/202/153 142/195/153
f 147/188/154 153/200/154 154/203/154
f 145/190/155 151/201/155 152/199/155
f 142/195/156 150/204/156 143/193/156
f 141/185/157 112/205/157 148/206/157
f 111/207/158 147/188/158 154/203/158
f 154/203/159 160/208/159 161/209/159
f 152/199/160 158/210/160 159/211/160
f 149/202/161 157/212/161 150/204/161
f 148/206/162 112/213/162 155/214/162
f 111/215/163 154/203/163 161/209/163
f 153/200/164 159/211/164 160/208/164
f 150/204/165 158/210/165 151/201/165
f 148/206/166 156/216/166 149/202/166
f 159/211/167 52/71/167 53/73/167
f 156/216/168 51/74/168 157/212/168
f 155/214/169 112/217/169 162/77/169
f 111/218/170 161/209/170 54/70/170
f 160/208/171 53/73/171 164/68/171
f 157/212/172 52/71/172 158/210/172
f 155/214/173 163/83/173 156/216/173
f 161/209/174 164/68/174 54/70/174
f 31/1/175 2/219/175 4/2/175
f 38/4/176 19/49/176 8/5/176
f 8/5/177 6/47/177 34/7/177
f 40/8/178 26/53/178 2/9/178
f 7/11/179 5/62/179 20/12/179
f 4/14/180 2/220/180 26/15/180
f 19/17/181 10/52/181 12/18/181
f 25/20/182 9/48/182 11/21/182
f 22/23/183 12/221/183 35/24/183
f 27/26/184 10/222/184 36/27/184
f 29/29/185 18/55/185 45/30/185
f 48/32/186 23/46/186 17/33/186
f 30/35/187 13/56/187 46/36/187
f 42/38/188 15/57/188 16/39/188
f 24/41/189 15/57/189 42/38/189
f 13/43/190 14/54/190 41/44/190
f 45/30/191 18/55/191 24/41/191
f 43/40/192 16/39/192 23/46/192
f 6/47/193 22/23/193 37/25/193
f 8/5/194 19/17/194 22/19/194
f 21/13/195 20/12/195 11/21/195
f 36/27/196 10/222/196 19/49/196
f 17/33/197 30/35/197 49/37/197
f 41/44/198 14/54/198 29/29/198
f 4/2/199 27/26/199 39/28/199
f 3/50/200 25/20/200 28/22/200
f 27/16/201 26/15/201 12/18/201
f 35/24/202 12/221/202 26/53/202
f 17/33/203 35/24/203 40/8/203
f 32/3/22 39/28/22 29/29/22
f 18/55/204 36/27/204 38/4/204
f 34/7/205 37/25/205 23/46/205
f 39/28/204 36/27/204 18/55/204
f 37/25/206 35/24/206 17/33/206
f 30/35/207 40/8/207 31/10/207
f 33/6/208 34/7/208 16/39/208
f 24/41/15 38/4/15 33/6/15
f 13/43/209 31/1/209 32/3/209
f 3/58/210 41/44/210 50/31/210
f 44/34/211 49/37/211 28/60/211
f 5/62/212 43/40/212 48/32/212
f 45/30/213 47/42/213 21/64/213
f 46/45/214 41/44/214 3/58/214
f 47/42/215 42/38/215 7/11/215
f 7/11/216 42/38/216 43/40/216
f 49/37/217 46/36/217 1/67/217
f 20/63/218 48/32/218 44/34/218
f 25/59/213 50/31/213 45/30/213
f 164/68/47 60/81/47 61/69/47
f 52/71/48 58/82/48 59/72/48
f 51/74/49 163/83/49 56/75/49
f 53/73/52 59/72/52 60/81/52
f 52/71/53 51/74/53 57/76/53
f 163/83/54 162/77/54 55/79/54
f 59/72/57 66/92/57 67/88/57
f 58/82/58 57/76/58 64/89/58
f 56/75/59 55/79/59 62/85/59
f 60/81/219 67/88/219 68/87/219
f 58/82/61 65/90/61 66/92/61
f 57/76/62 56/75/62 63/91/62
f 66/92/63 73/99/63 74/93/63
f 65/90/64 64/89/64 71/94/64
f 63/91/65 62/85/65 69/96/65
f 67/88/66 74/93/66 75/98/66
f 65/90/67 72/95/67 73/99/67
f 64/89/68 63/91/68 70/97/68
f 74/93/71 81/109/71 82/102/71
f 72/95/72 79/110/72 80/103/72
f 71/94/73 70/97/73 77/104/73
f 73/99/76 80/103/76 81/109/76
f 71/94/77 78/105/77 79/110/77
f 70/97/78 69/96/78 76/107/78
f 79/110/79 86/118/79 87/111/79
f 77/104/80 84/119/80 85/112/80
f 81/109/83 80/103/83 87/111/83
f 78/105/84 85/112/84 86/118/84
f 76/107/85 83/114/85 84/119/85
f 82/102/86 81/109/86 88/117/86
f 88/117/88 87/111/88 94/122/88
f 85/112/89 92/126/89 93/124/89
f 83/114/90 90/128/90 91/125/90
f 89/116/91 88/117/91 95/123/91
f 87/111/92 86/118/92 93/124/92
f 84/119/93 91/125/93 92/126/93
f 92/126/95 99/134/95 100/129/95
f 90/128/96 97/136/96 98/130/96
f 96/121/97 95/123/97 102/131/97
f 94/122/98 93/124/98 100/129/98
f 91/125/99 98/130/99 99/134/99
f 95/123/102 94/122/102 101/133/102
f 103/132/103 102/131/103 109/138/103
f 101/133/104 100/129/104 107/140/104
f 98/130/105 105/146/105 106/142/105
f 102/131/108 101/133/108 108/141/108
f 99/134/109 106/142/109 107/140/109
f 97/136/110 104/144/110 105/146/110
f 106/142/111 105/146/111 114/147/111
f 108/141/114 117/155/114 118/153/114
f 107/140/115 106/142/115 115/148/115
f 105/146/116 104/144/116 113/150/116
f 109/138/117 118/153/117 119/152/117
f 107/140/118 116/154/118 117/155/118
f 117/155/120 124/163/120 125/158/120
f 116/154/121 115/148/121 122/159/121
f 114/147/122 113/150/122 120/161/122
f 118/153/123 125/158/123 126/157/123
f 116/154/124 123/160/124 124/163/124
f 115/148/125 114/147/125 121/162/125
f 121/162/127 120/161/127 127/165/127
f 125/158/128 132/172/128 133/167/128
f 123/160/129 130/173/129 131/168/129
f 122/159/130 121/162/130 128/166/130
f 124/163/133 131/168/133 132/172/133
f 123/160/134 122/159/134 129/169/134
f 132/172/135 139/182/135 140/174/135
f 131/168/136 130/173/136 137/175/136
f 129/169/137 128/166/137 135/177/137
f 131/168/140 138/176/140 139/182/140
f 130/173/141 129/169/141 136/178/141
f 128/166/142 127/165/142 134/180/142
f 139/189/145 138/197/145 145/190/145
f 137/192/146 136/198/146 143/193/146
f 134/183/147 141/185/147 142/195/147
f 140/187/148 139/189/148 146/191/148
f 138/197/149 137/192/149 144/194/149
f 135/196/150 142/195/150 143/193/150
f 146/191/151 145/190/151 152/199/151
f 143/193/152 150/204/152 151/201/152
f 141/185/153 148/206/153 149/202/153
f 147/188/154 146/191/154 153/200/154
f 145/190/155 144/194/155 151/201/155
f 142/195/156 149/202/156 150/204/156
f 154/203/159 153/200/159 160/208/159
f 152/199/160 151/201/160 158/210/160
f 149/202/161 156/216/161 157/212/161
f 153/200/164 152/199/164 159/211/164
f 150/204/165 157/212/165 158/210/165
f 148/206/166 155/214/166 156/216/166
f 159/211/167 158/210/167 52/71/167
f 156/216/168 163/83/168 51/74/168
f 160/208/171 159/211/171 53/73/171
f 157/212/172 51/74/172 52/71/172
f 155/214/173 162/77/173 163/83/173
f 161/209/174 160/208/174 164/68/174
