# Blender 5.2.0 LTS
# www.blender.org
mtllib HormingEnemy.mtl
o 立方体
v 1.414214 0.000000 0.000000
v 0.000000 1.414214 0.000000
v 1.414210 0.000000 0.000000
v 0.000000 1.414214 0.000000
v 0.000000 -1.414214 0.000000
v -1.414214 0.000000 0.000000
v 0.000000 -1.414210 0.000000
v -1.414214 0.000000 0.000000
v 0.707107 0.707107 -0.500000
v 0.707107 0.707107 0.500000
v -0.707107 -0.707107 0.500000
v -0.707107 -0.707107 -0.500000
v 0.707107 -0.707107 0.500000
v -0.707107 0.707107 0.500000
v 0.707107 -0.707107 -0.500000
v -0.707107 0.707107 -0.500000
v 0.000000 0.000000 -1.000000
v 0.000000 0.000000 1.000000
v 1.414214 0.000000 0.000000
v 0.000000 1.414214 0.000000
v 0.000000 -1.414214 0.000000
v -1.414214 0.000000 0.000000
v -0.707107 -0.707107 0.000000
v 0.707107 0.707107 0.000000
v -0.707107 0.707107 0.000000
v 0.707107 -0.707107 0.000000
vn 0.7071 0.7071 -0.0000
vn -0.5774 -0.0000 0.8165
vn -0.7071 -0.7071 -0.0000
vn -0.0000 0.5774 -0.8165
vn 0.7071 -0.7071 -0.0000
vn -0.7071 0.7071 -0.0000
vn 0.5774 -0.0000 -0.8165
vn -0.0000 1.0000 -0.0000
vn -0.0000 -0.5774 0.8165
vn -0.0000 -0.0000 1.0000
vn 0.5774 -0.0000 0.8165
vn -0.0000 -0.5774 -0.8165
vn -0.5774 -0.0000 -0.8165
vn -0.0000 0.5774 0.8165
vn -0.6015 -0.0000 0.7989
vt 0.500000 0.125000
vt 0.625000 0.250000
vt 0.500000 0.250000
vt 0.625000 0.375000
vt 0.500000 0.500000
vt 0.500000 0.375000
vt 0.500000 0.625000
vt 0.625000 0.750000
vt 0.500000 0.750000
vt 0.625000 0.875000
vt 0.500000 1.000000
vt 0.500000 0.875000
vt 0.250000 0.625000
vt 0.375000 0.750000
vt 0.250000 0.750000
vt 0.750000 0.625000
vt 0.875000 0.750000
vt 0.750000 0.750000
vt 0.375000 0.875000
vt 0.375000 1.000000
vt 0.375000 0.625000
vt 0.375000 0.375000
vt 0.375000 0.500000
vt 0.375000 0.250000
vt 0.375000 0.125000
vt 0.625000 0.625000
vt 0.125000 0.625000
vt 0.125000 0.750000
vt 0.125000 0.500000
vt 0.625000 0.500000
vt 0.375000 0.000000
vt 0.750000 0.500000
vt 0.875000 0.625000
vt 0.250000 0.500000
vt 0.500000 0.000000
vt 0.625000 0.125000
vt 0.625000 1.000000
vt 0.875000 0.500000
vt 0.625000 0.000000
s 0
usemtl マテリアル
f 24/1/1 4/2/1 10/3/1
f 14/4/2 11/5/2 18/6/2
f 23/7/3 6/8/3 12/9/3
f 16/10/4 9/11/4 17/12/4
f 26/13/5 5/14/5 15/15/5
f 25/16/6 2/17/6 16/18/6
f 15/19/7 9/11/7 1/20/7
f 21/21/8 12/9/8 5/14/8
f 13/22/9 11/5/9 7/23/9
f 24/1/10 3/24/10 19/25/10
f 10/3/11 13/22/11 3/24/11
f 12/9/12 15/19/12 5/14/12
f 22/26/8 16/18/8 6/8/8
f 19/27/8 15/15/8 1/28/8
f 12/9/13 16/10/13 17/12/13
f 10/3/14 14/4/14 18/6/14
f 3/29/10 26/13/10 19/27/10
f 8/30/8 25/16/8 22/26/8
f 1/31/8 24/1/8 19/25/8
f 7/23/10 23/7/10 21/21/10
f 14/32/6 20/33/6 25/16/6
f 13/34/5 21/21/5 26/13/5
f 11/5/3 22/26/3 23/7/3
f 9/35/1 20/36/1 24/1/1
f 24/1/8 20/36/8 4/2/8
f 14/4/2 8/30/2 11/5/2
f 23/7/8 22/26/8 6/8/8
f 16/10/4 2/37/4 9/11/4
f 26/13/8 21/21/8 5/14/8
f 25/16/8 20/33/8 2/17/8
f 15/19/7 17/12/7 9/11/7
f 21/21/3 23/7/3 12/9/3
f 13/22/9 18/6/9 11/5/9
f 24/1/1 10/3/1 3/24/1
f 10/3/11 18/6/11 13/22/11
f 12/9/12 17/12/12 15/19/12
f 22/26/6 25/16/6 16/18/6
f 19/27/5 26/13/5 15/15/5
f 12/9/13 6/8/13 16/10/13
f 10/3/14 4/2/14 14/4/14
f 3/29/5 13/34/5 26/13/5
f 8/30/6 14/32/6 25/16/6
f 1/31/1 9/35/1 24/1/1
f 7/23/3 11/5/3 23/7/3
f 14/32/8 4/38/8 20/33/8
f 13/34/15 7/23/15 21/21/15
f 11/5/8 8/30/8 22/26/8
f 9/35/8 2/39/8 20/36/8
