# Blender 5.1.1
# www.blender.org
mtllib missile.mtl
o Cube
v 0.389523 5.483368 0.389523
v -0.389523 5.483368 0.389523
v 0.389523 5.483368 -0.389523
v -0.389523 5.483368 -0.389523
v 0.110370 3.682496 -1.000000
v 1.000000 3.682496 -0.110370
v 1.000000 1.682496 -0.110370
v 0.110370 1.682496 -1.000000
v 1.000000 3.682496 0.110370
v 0.110370 3.682496 1.000000
v 0.110370 1.682496 1.000000
v 1.000000 1.682496 0.110370
v -1.000000 3.682496 -0.110370
v -0.110370 3.682496 -1.000000
v -0.110370 1.682496 -1.000000
v -1.000000 1.682496 -0.110370
v -0.110370 3.682496 1.000000
v -1.000000 3.682496 0.110370
v -1.000000 1.682496 0.110370
v -0.110370 1.682496 1.000000
v 1.000000 -0.005444 0.110370
v 0.110370 -0.005444 1.000000
v 0.110370 -0.005444 -1.000000
v 1.000000 -0.005444 -0.110370
v -0.110370 -0.005444 1.000000
v -1.000000 -0.005444 0.110370
v -1.000000 -0.005444 -0.110370
v -0.110370 -0.005444 -1.000000
v 0.110370 4.872891 1.000000
v 1.000000 4.872891 0.110370
v 0.486372 5.386518 0.486372
v -1.000000 4.872891 0.110370
v -0.110370 4.872891 1.000000
v -0.486372 5.386518 0.486372
v 1.000000 4.872891 -0.110370
v 0.110370 4.872891 -1.000000
v 0.486372 5.386518 -0.486372
v -0.110370 4.872891 -1.000000
v -1.000000 4.872891 -0.110370
v -0.486372 5.386518 -0.486372
v 0.000000 0.014687 -2.195946
v 0.019509 0.014687 -2.153751
v 0.038268 0.014687 -2.028790
v 0.055557 0.014687 -1.825862
v 0.070711 0.014687 -1.552768
v 0.083147 0.014687 -1.220002
v 0.092388 0.014687 -0.840352
v 0.098079 0.014687 -0.428408
v 0.100000 0.014687 0.000000
v 0.098079 0.014687 0.428408
v 0.092388 0.014687 0.840352
v 0.083147 0.014687 1.220002
v 0.070711 0.014687 1.552768
v 0.055557 0.014687 1.825862
v 0.038268 0.014687 2.028790
v 0.019509 0.014687 2.153751
v 0.000000 0.014687 2.195946
v -0.019509 0.014687 2.153751
v -0.038268 0.014687 2.028790
v -0.055557 0.014687 1.825862
v -0.070711 0.014687 1.552768
v -0.083147 0.014687 1.220002
v -0.092388 0.014687 0.840352
v -0.098079 0.014687 0.428408
v -0.100000 0.014687 0.000000
v -0.098079 0.014687 -0.428408
v -0.092388 0.014687 -0.840352
v -0.083147 0.014687 -1.220002
v -0.070711 0.014687 -1.552768
v -0.055557 0.014687 -1.825862
v -0.038268 0.014687 -2.028790
v -0.019509 0.014687 -2.153751
v 0.000000 2.014688 0.000000
v -2.195946 0.014687 0.000000
v -2.153751 0.014687 -0.019509
v -1.552768 0.014687 -0.070711
v -0.840352 0.014687 -0.092388
v -0.428408 0.014687 -0.098079
v 0.000000 0.014687 -0.100000
v 0.428408 0.014687 -0.098079
v 0.840352 0.014687 -0.092388
v 1.220002 0.014687 -0.083147
v 1.552768 0.014687 -0.070711
v 1.825862 0.014687 -0.055557
v 2.028790 0.014687 -0.038268
v 2.153751 0.014687 -0.019509
v 2.195946 0.014687 0.000000
v 2.153751 0.014687 0.019509
v 2.028790 0.014687 0.038268
v 1.825862 0.014687 0.055557
v 1.552768 0.014687 0.070711
v 1.220002 0.014687 0.083147
v 0.840352 0.014687 0.092388
v 0.428408 0.014687 0.098079
v 0.000000 0.014687 0.100000
v -0.428408 0.014687 0.098079
v -0.840352 0.014687 0.092388
v -1.220002 0.014687 0.083147
v -1.552768 0.014687 0.070711
v -1.825862 0.014687 0.055557
v -2.028790 0.014687 0.038268
v -2.153751 0.014687 0.019509
v 0.000000 2.014688 0.000000
vn -0.0000 1.0000 -0.0000
vn 0.6947 0.1862 0.6947
vn -0.6947 0.1862 0.6947
vn 0.6947 0.1862 -0.6947
vn -0.6947 0.1862 -0.6947
vn 0.7071 -0.0000 -0.7071
vn -0.7071 -0.0000 0.7071
vn 0.7071 -0.0000 0.7071
vn -0.7071 -0.0000 -0.7071
vn -0.0000 -0.0000 -1.0000
vn 1.0000 -0.0000 -0.0000
vn -0.0000 -0.0000 1.0000
vn -1.0000 -0.0000 -0.0000
vn -0.0000 -1.0000 -0.0000
vn 0.7071 0.7071 -0.0000
vn -0.0000 0.7071 0.7071
vn -0.7071 0.7071 -0.0000
vn -0.0000 0.7071 -0.7071
vn 0.8244 0.4185 -0.3811
vn 0.9956 0.0751 -0.0552
vn 0.9985 0.0523 -0.0150
vn 0.9982 0.0559 -0.0238
vn 0.9986 0.0519 -0.0138
vn 0.9987 0.0499 -0.0045
vn 0.9988 0.0499 -0.0000
vn 0.9987 0.0499 0.0045
vn 0.9986 0.0519 0.0138
vn 0.9982 0.0559 0.0238
vn 0.9985 0.0523 0.0150
vn 0.9956 0.0751 0.0552
vn 0.8244 0.4185 0.3812
vn -0.8244 0.4185 0.3812
vn -0.9956 0.0751 0.0552
vn -0.9985 0.0523 0.0150
vn -0.9982 0.0559 0.0238
vn -0.9986 0.0519 0.0138
vn -0.9987 0.0499 0.0045
vn -0.9988 0.0499 -0.0000
vn -0.9987 0.0499 -0.0045
vn -0.9986 0.0519 -0.0138
vn -0.9982 0.0559 -0.0238
vn -0.9985 0.0523 -0.0150
vn -0.9956 0.0751 -0.0552
vn -0.8244 0.4185 -0.3811
vn -0.3812 0.4185 -0.8244
vn -0.0304 0.0588 -0.9978
vn -0.0138 0.0519 -0.9986
vn -0.0136 0.0513 -0.9986
vn -0.0051 0.0498 -0.9987
vn -0.0045 0.0499 -0.9987
vn 0.0045 0.0499 -0.9987
vn 0.0136 0.0513 -0.9986
vn 0.0051 0.0498 -0.9987
vn 0.0138 0.0519 -0.9986
vn 0.0552 0.0751 -0.9956
vn 0.3812 0.4185 -0.8244
vn 0.3812 0.4185 0.8244
vn 0.0552 0.0751 0.9956
vn 0.0150 0.0523 0.9985
vn 0.0238 0.0559 0.9982
vn 0.0138 0.0519 0.9986
vn 0.0045 0.0499 0.9987
vn -0.0000 0.0499 0.9988
vn -0.0045 0.0499 0.9987
vn -0.0138 0.0519 0.9986
vn -0.0238 0.0559 0.9982
vn -0.0150 0.0523 0.9985
vn -0.0552 0.0751 0.9956
vn -0.3812 0.4185 0.8244
vn 0.9750 0.1671 -0.1464
vn 0.9981 0.0563 -0.0243
vn 0.9981 0.0563 0.0243
vn 0.9750 0.1671 0.1464
vn -0.9750 0.1671 0.1464
vn -0.9981 0.0563 0.0243
vn -0.9981 0.0563 -0.0243
vn -0.9750 0.1671 -0.1464
vn -0.0845 0.1006 -0.9913
vn 0.0243 0.0563 -0.9981
vn 0.1464 0.1671 -0.9750
vn 0.1464 0.1671 0.9750
vn 0.0243 0.0563 0.9981
vn -0.0243 0.0563 0.9981
vn -0.1464 0.1671 0.9750
vt 0.233428 0.883258
vt 0.176046 0.829520
vt 0.230932 0.827587
vt 0.071714 0.830221
vt 0.191310 0.757174
vt 0.166807 0.817214
vt 0.190114 0.995440
vt 0.063211 0.859990
vt 0.160590 0.896822
vt 0.210503 0.757184
vt 0.343538 0.821771
vt 0.239291 0.814483
vt 0.342934 0.854320
vt 0.222273 0.999913
vt 0.247908 0.895445
vt 0.214687 0.412874
vt 0.363454 0.662142
vt 0.213594 0.644427
vt 0.766012 0.677593
vt 0.593011 0.400463
vt 0.766012 0.397636
vt 0.030423 0.397495
vt 0.189279 0.644539
vt 0.032746 0.666376
vt 0.398190 0.405565
vt 0.560440 0.672954
vt 0.392370 0.664400
vt 0.369593 0.406557
vt 0.218675 0.242437
vt 0.348604 0.183115
vt 0.068783 0.169043
vt 0.188823 0.412460
vt 0.378392 0.180387
vt 0.562994 0.400922
vt 0.584125 0.169686
vt 0.758310 0.163945
vt 0.590834 0.673864
vt 0.761224 0.845906
vt 0.583466 0.840030
vt 0.552522 0.838666
vt 0.373835 0.825268
vt 0.000088 0.395030
vt 0.040776 0.837401
vt 0.002413 0.670156
vt 0.206147 0.000088
vt 0.174141 0.884183
vt 0.196095 0.247381
vt 0.553859 0.170893
vt 0.038572 0.164010
vt 0.239630 0.004078
vt 0.358492 0.155104
vt 0.069025 0.135261
vt 0.766187 0.000088
vt 0.766187 0.000263
s 1
usemtl Material.001
f 4/1/1 1/2/1 3/3/1
f 29/4/2 30/5/2 31/6/2
f 32/7/3 33/8/3 34/9/3
f 35/10/4 36/11/4 37/12/4
f 38/13/5 39/14/5 40/15/5
f 7/16/6 5/17/6 6/18/6
f 17/19/7 19/20/7 20/21/7
f 11/22/8 9/23/8 10/24/8
f 15/25/9 13/26/9 14/27/9
f 8/28/6 24/29/6 23/30/6
f 22/31/8 12/32/8 11/22/8
f 28/33/9 16/34/9 15/25/9
f 20/21/7 26/35/7 25/36/7
f 10/24/8 30/5/8 29/4/8
f 36/11/6 6/18/6 5/17/6
f 18/37/7 33/38/7 32/39/7
f 14/27/9 39/40/9 38/41/9
f 14/27/10 8/28/10 15/25/10
f 6/18/11 12/32/11 7/16/11
f 14/27/10 36/11/10 5/17/10
f 6/18/11 30/5/11 9/23/11
f 8/28/10 28/33/10 15/25/10
f 12/32/11 24/29/11 7/16/11
f 10/24/12 20/42/12 11/22/12
f 10/24/12 33/43/12 17/44/12
f 20/42/12 22/31/12 11/22/12
f 18/37/13 16/34/13 19/20/13
f 18/37/13 39/40/13 13/26/13
f 16/34/13 26/35/13 19/20/13
f 24/29/14 22/31/14 26/45/14
f 1/2/15 30/5/15 37/12/15
f 2/46/16 33/8/16 31/6/16
f 4/1/17 39/14/17 34/9/17
f 3/3/18 36/11/18 40/15/18
f 4/1/1 2/46/1 1/2/1
f 7/16/6 8/28/6 5/17/6
f 17/19/7 18/37/7 19/20/7
f 11/22/8 12/32/8 9/23/8
f 15/25/9 16/34/9 13/26/9
f 8/28/6 7/16/6 24/29/6
f 22/31/8 21/47/8 12/32/8
f 28/33/9 27/48/9 16/34/9
f 20/21/7 19/20/7 26/35/7
f 10/24/8 9/23/8 30/5/8
f 36/11/6 35/10/6 6/18/6
f 18/37/7 17/19/7 33/38/7
f 14/27/9 13/26/9 39/40/9
f 14/27/10 5/17/10 8/28/10
f 6/18/11 9/23/11 12/32/11
f 14/27/10 38/41/10 36/11/10
f 6/18/11 35/10/11 30/5/11
f 8/28/10 23/30/10 28/33/10
f 12/32/11 21/47/11 24/29/11
f 10/24/12 17/44/12 20/42/12
f 10/24/12 29/4/12 33/43/12
f 20/42/12 25/49/12 22/31/12
f 18/37/13 13/26/13 16/34/13
f 18/37/13 32/39/13 39/40/13
f 16/34/13 27/48/13 26/35/13
f 26/45/14 27/50/14 28/51/14
f 28/51/14 23/30/14 24/29/14
f 24/29/14 21/47/14 22/31/14
f 22/31/14 25/52/14 26/45/14
f 26/45/14 28/51/14 24/29/14
f 37/12/15 3/3/15 1/2/15
f 1/2/15 31/6/15 30/5/15
f 30/5/15 35/10/15 37/12/15
f 31/6/16 1/2/16 2/46/16
f 2/46/16 34/9/16 33/8/16
f 33/8/16 29/4/16 31/6/16
f 34/9/17 2/46/17 4/1/17
f 4/1/17 40/15/17 39/14/17
f 39/14/17 32/7/17 34/9/17
f 40/15/18 4/1/18 3/3/18
f 3/3/18 37/12/18 36/11/18
f 36/11/18 38/13/18 40/15/18
usemtl マテリアル
f 41/53/19 73/53/19 42/53/19
f 43/53/20 73/53/20 46/53/20
f 47/53/21 73/53/22 48/53/23
f 48/53/24 73/53/25 49/53/25
f 49/53/25 73/53/25 50/53/26
f 50/53/27 73/53/28 51/53/29
f 52/53/30 73/53/30 55/53/30
f 56/53/31 73/53/31 57/53/31
f 57/53/32 73/53/32 58/53/32
f 59/53/33 73/53/33 62/53/33
f 63/53/34 73/53/35 64/53/36
f 64/53/37 73/53/38 65/53/38
f 65/53/38 73/53/38 66/53/39
f 66/53/40 73/53/41 67/53/42
f 68/53/43 73/53/43 71/53/43
f 56/53/14 64/53/14 72/53/14
f 72/53/44 73/53/44 41/53/44
f 74/54/45 103/54/45 75/54/45
f 76/54/46 103/54/46 77/54/46
f 77/54/47 103/54/48 78/54/49
f 78/54/49 103/54/48 79/54/50
f 79/54/51 103/54/52 80/54/53
f 80/54/53 103/54/52 81/54/54
f 82/54/55 103/54/55 85/54/55
f 86/54/56 103/54/56 87/54/56
f 87/54/57 103/54/57 88/54/57
f 89/54/58 103/54/58 92/54/58
f 93/54/59 103/54/60 94/54/61
f 94/54/62 103/54/63 95/54/63
f 95/54/63 103/54/63 96/54/64
f 96/54/65 103/54/66 97/54/67
f 98/54/68 103/54/68 101/54/68
f 83/54/14 91/54/14 99/54/14
f 102/54/69 103/54/69 74/54/69
f 45/53/1 44/53/1 43/53/1
f 43/53/70 42/53/70 73/53/70
f 73/53/22 47/53/21 46/53/71
f 46/53/1 45/53/1 43/53/1
f 54/53/1 53/53/1 52/53/1
f 52/53/72 51/53/29 73/53/28
f 73/53/73 56/53/73 55/53/73
f 55/53/1 54/53/1 52/53/1
f 61/53/1 60/53/1 59/53/1
f 59/53/74 58/53/74 73/53/74
f 73/53/35 63/53/34 62/53/75
f 62/53/1 61/53/1 59/53/1
f 70/53/1 69/53/1 68/53/1
f 68/53/76 67/53/42 73/53/41
f 73/53/77 72/53/77 71/53/77
f 71/53/1 70/53/1 68/53/1
f 72/53/14 41/53/14 42/53/14
f 42/53/14 43/53/14 44/53/14
f 44/53/14 45/53/14 46/53/14
f 46/53/14 47/53/14 48/53/14
f 48/53/14 49/53/14 50/53/14
f 50/53/14 51/53/14 52/53/14
f 54/53/14 55/53/14 56/53/14
f 56/53/14 57/53/14 58/53/14
f 58/53/14 59/53/14 60/53/14
f 60/53/14 61/53/14 62/53/14
f 62/53/14 63/53/14 64/53/14
f 64/53/14 65/53/14 66/53/14
f 66/53/14 67/53/14 68/53/14
f 70/53/14 71/53/14 72/53/14
f 72/53/14 42/53/14 44/53/14
f 44/53/14 46/53/14 48/53/14
f 48/53/14 50/53/14 52/53/14
f 52/53/14 54/53/14 56/53/14
f 56/53/14 58/53/14 60/53/14
f 60/53/14 62/53/14 64/53/14
f 64/53/14 66/53/14 68/53/14
f 68/53/14 70/53/14 72/53/14
f 72/53/14 44/53/14 48/53/14
f 48/53/14 52/53/14 56/53/14
f 56/53/14 60/53/14 64/53/14
f 64/53/14 68/53/14 72/53/14
f 72/53/14 48/53/14 56/53/14
f 76/54/78 75/54/78 103/54/78
f 84/54/1 83/54/1 82/54/1
f 82/54/79 81/54/79 103/54/79
f 103/54/80 86/54/80 85/54/80
f 85/54/1 84/54/1 82/54/1
f 91/54/1 90/54/1 89/54/1
f 89/54/81 88/54/81 103/54/81
f 103/54/60 93/54/59 92/54/82
f 92/54/1 91/54/1 89/54/1
f 100/54/1 99/54/1 98/54/1
f 98/54/83 97/54/67 103/54/66
f 103/54/84 102/54/84 101/54/84
f 101/54/1 100/54/1 98/54/1
f 102/54/14 74/54/14 75/54/14
f 75/54/14 76/54/14 77/54/14
f 77/54/14 78/54/14 79/54/14
f 79/54/14 80/54/14 81/54/14
f 81/54/14 82/54/14 83/54/14
f 83/54/14 84/54/14 85/54/14
f 85/54/14 86/54/14 87/54/14
f 87/54/14 88/54/14 89/54/14
f 91/54/14 92/54/14 93/54/14
f 93/54/14 94/54/14 95/54/14
f 95/54/14 96/54/14 97/54/14
f 97/54/14 98/54/14 99/54/14
f 99/54/14 100/54/14 101/54/14
f 101/54/14 102/54/14 75/54/14
f 75/54/14 77/54/14 79/54/14
f 79/54/14 81/54/14 83/54/14
f 83/54/14 85/54/14 87/54/14
f 87/54/14 89/54/14 91/54/14
f 91/54/14 93/54/14 95/54/14
f 95/54/14 97/54/14 99/54/14
f 99/54/14 101/54/14 75/54/14
f 75/54/14 79/54/14 83/54/14
f 83/54/14 87/54/14 91/54/14
f 91/54/14 95/54/14 99/54/14
f 99/54/14 75/54/14 83/54/14
