# Blender 5.1.1
# www.blender.org
mtllib racket.mtl
o 立方体.001
v -0.063736 -1.497814 0.228639
v -0.063736 -0.599605 0.228639
v -0.063736 -1.497814 -0.242711
v -0.063736 -0.599605 -0.242711
v 0.063736 -1.497814 0.228639
v 0.063736 -0.599605 0.228639
v 0.063736 -1.497814 -0.242711
v 0.063736 -0.599605 -0.242711
v -0.063736 1.295430 0.115277
v 0.063736 1.295430 0.115277
v -0.063736 1.295430 -0.007964
v 0.063736 1.295430 -0.007964
v -0.063736 -0.602187 0.336936
v 0.063736 -0.602187 0.336936
v -0.063736 -0.602187 -0.385497
v 0.063736 -0.602187 -0.385497
v -0.063736 -0.160355 -0.953604
v -0.063736 -0.454474 -0.696830
v 0.063736 -0.454474 -0.696830
v 0.063736 -0.160355 -0.953604
v -0.063736 1.025096 -0.577740
v -0.063736 0.594567 -0.953604
v 0.063736 0.594567 -0.953604
v 0.063736 1.025096 -0.577740
v -0.063736 -0.495635 0.561515
v -0.063736 -0.062640 0.939531
v 0.063736 -0.062640 0.939531
v 0.063736 -0.495635 0.561515
v -0.063736 0.750745 0.939531
v -0.063736 1.012977 0.710595
v 0.063736 1.012977 0.710595
v 0.063736 0.750745 0.939531
vn -1.0000 -0.0000 -0.0000
vn -0.0000 -0.0000 -1.0000
vn 1.0000 -0.0000 -0.0000
vn -0.0000 -0.0000 1.0000
vn -0.0000 -1.0000 -0.0000
vn -0.0000 1.0000 -0.0000
vn -0.0000 -0.6577 -0.7533
vn -0.0000 -0.9035 -0.4287
vn -0.0000 0.6577 -0.7533
vn -0.0000 0.9035 -0.4287
vn -0.0000 -0.6577 0.7533
vn -0.0000 -0.9035 0.4287
vn -0.0000 0.6577 0.7533
vn -0.0000 0.9035 0.4287
vt 0.821500 0.000122
vt 0.643121 0.178500
vt 0.643121 0.000122
vt 0.821500 0.178500
vt 0.643121 0.356879
vt 0.821500 0.356879
vt 0.643121 0.535258
vt 0.821500 0.535258
vt 0.643121 0.713636
vt 0.464742 0.535258
vt 0.464742 0.356879
vt 0.999878 0.356879
vt 0.326847 0.494322
vt 0.459995 0.615131
vt 0.306704 0.545620
vt 0.191798 0.378357
vt 0.022145 0.350513
vt 0.048548 0.283275
vt 0.235457 0.340680
vt 0.059926 0.254298
vt 0.069311 0.230400
vt 0.210610 0.354315
vt 0.372091 0.209250
vt 0.323891 0.436336
vt 0.300284 0.383709
vt 0.442279 0.200361
vt 0.411460 0.213331
vt 0.315103 0.171423
vt 0.000122 0.406598
vt 0.162549 0.470057
vt 0.171521 0.520365
vt 0.165395 0.445596
vt 0.013937 0.371415
vt 0.176314 0.745669
vt 0.270877 0.568405
vt 0.196110 0.758808
vt 0.453070 0.040877
vt 0.302512 0.096410
vt 0.243505 0.568144
vt 0.114912 0.704913
vt 0.821500 0.713636
vt 0.999878 0.535258
vt 0.464499 0.603660
vt 0.328915 0.029172
vt 0.345167 0.013609
vt 0.391668 0.000122
vt 0.464499 0.075325
vt 0.464064 0.144885
vt 0.302285 0.132788
vt 0.217432 0.772961
s 0
usemtl マテリアル
f 2/1/1 3/2/1 1/3/1
f 4/4/2 7/5/2 3/2/2
f 8/6/3 5/7/3 7/5/3
f 6/8/4 1/9/4 5/7/4
f 7/5/5 1/10/5 3/11/5
f 4/12/6 6/8/6 8/6/6
f 12/13/6 9/14/6 10/15/6
f 16/16/5 13/17/5 15/18/5
f 20/19/7 18/20/7 17/21/7
f 15/18/8 19/22/8 16/16/8
f 22/23/9 24/24/9 23/25/9
f 11/26/10 24/24/10 21/27/10
f 22/23/2 20/19/2 17/28/2
f 26/29/11 28/30/11 27/31/11
f 14/32/12 25/33/12 13/17/12
f 29/34/13 31/35/13 30/36/13
f 29/37/1 21/27/1 15/38/1
f 10/15/14 30/36/14 31/35/14
f 32/39/4 26/40/4 27/31/4
f 23/25/3 31/35/3 14/32/3
f 2/1/1 4/4/1 3/2/1
f 4/4/2 8/6/2 7/5/2
f 8/6/3 6/8/3 5/7/3
f 6/8/4 2/41/4 1/9/4
f 7/5/5 5/7/5 1/10/5
f 4/12/6 2/42/6 6/8/6
f 12/13/6 11/43/6 9/14/6
f 16/16/5 14/32/5 13/17/5
f 20/19/7 19/22/7 18/20/7
f 15/18/8 18/20/8 19/22/8
f 22/23/9 21/27/9 24/24/9
f 11/26/10 12/13/10 24/24/10
f 22/23/2 23/25/2 20/19/2
f 26/29/11 25/33/11 28/30/11
f 14/32/12 28/30/12 25/33/12
f 29/34/13 32/39/13 31/35/13
f 15/38/1 13/44/1 25/45/1
f 25/45/1 26/46/1 29/37/1
f 29/37/1 30/47/1 9/48/1
f 9/48/1 11/26/1 21/27/1
f 21/27/1 22/23/1 17/28/1
f 17/28/1 18/49/1 15/38/1
f 15/38/1 25/45/1 29/37/1
f 29/37/1 9/48/1 21/27/1
f 21/27/1 17/28/1 15/38/1
f 10/15/14 9/50/14 30/36/14
f 32/39/4 29/34/4 26/40/4
f 14/32/3 16/16/3 19/22/3
f 19/22/3 20/19/3 23/25/3
f 23/25/3 24/24/3 12/13/3
f 12/13/3 10/15/3 31/35/3
f 31/35/3 32/39/3 27/31/3
f 27/31/3 28/30/3 14/32/3
f 14/32/3 19/22/3 23/25/3
f 23/25/3 12/13/3 31/35/3
f 31/35/3 27/31/3 14/32/3
